<svg xmlns="http://www.w3.org/2000/svg" width="32" height="30" viewBox="0 0 32 30"><defs><style>.cls-1 { fill: #4724f4; fill-rule: evenodd; }</style></defs><path id="linux-containers.svg" class="cls-1" d="M1005 5881v16a2.006 2.006 0 0 1-2 2h-24a2 2 0 0 1-2-2v-16a2 2 0 0 1-2-2v-8a2 2 0 0 1 2-2h28a2 2 0 0 1 2 2v8a2.006 2.006 0 0 1-2 2zm-26 15a1 1 0 0 0 1 1h22a1 1 0 0 0 1-1v-14a1 1 0 0 0-1-1h-5v4a2 2 0 0 1-2 2h-8a2 2 0 0 1-2-2v-4h-5a1 1 0 0 0-1 1v14zm16-12v-3h-8v3a1 1 0 0 0 1 1h6a1 1 0 0 0 1-1zm10-12a1 1 0 0 0-1-1h-26a1 1 0 0 0-1 1v6a1 1 0 0 0 1 1h26a1 1 0 0 0 1-1v-6z" transform="translate(-975 -5869)"/></svg>