<svg xmlns="http://www.w3.org/2000/svg" width="29.156" height="29.12" viewBox="0 0 29.156 29.12"><defs><style>.cls-1, .cls-2, .cls-3 { fill: #fff; stroke: #4724f4; stroke-width: 2px; } .cls-2, .cls-3, .cls-4 { fill-rule: evenodd; } .cls-3 { stroke-linejoin: round; } .cls-4 { fill: #4724f4; }</style></defs><circle class="cls-1" cx="14.094" cy="14.06" r="13"/><path id="Rounded_Rectangle_5" class="cls-2" d="M432.8 5328.8a4.346 4.346 0 0 1-6.135 0l-18.478-18.46a4.337 4.337 0 1 1 6.136-6.13l18.477 18.46a4.332 4.332 0 0 1 0 6.13z" transform="translate(-405.906 -5301.94)"/><path class="cls-3" d="M14.094 20.06l6-6-5-5-6 6z"/><path class="cls-4" d="M429.5 5324a.5.5 0 1 1 .5-.5.5.5 0 0 1-.5.5zm-2 2a.5.5 0 1 1 .5-.5.5.5 0 0 1-.5.5zm0-4a.5.5 0 1 1 .5-.5.5.5 0 0 1-.5.5zm-2 2a.5.5 0 1 1 .5-.5.5.5 0 0 1-.5.5zm-10-14a.5.5 0 1 1 .5-.5.5.5 0 0 1-.5.5zm-2 2a.5.5 0 1 1 .5-.5.5.5 0 0 1-.5.5zm0-4a.5.5 0 1 1 .5-.5.5.5 0 0 1-.5.5zm-2 2a.5.5 0 1 1 .5-.5.5.5 0 0 1-.5.5z" transform="translate(-405.906 -5301.94)"/></svg>